# xmcd CD database file
#
# Track frame offsets:
#	150
#	28910
#	55447
#	78550
#	89319
#	107522
#	130650
#	151517
#	182052
#	203580
#
# Disc length: 2914 seconds
#
# Revision: 0
# Processed by: cddbd v1.5PL3 Copyright (c) Steve Scherf et al.
# Submitted via: CDex 1.51
#
DISCID=760b600a
DTITLE=Bird of Hope - Sina Vodjani
DYEAR=1998
DGENRE=New Age
TTITLE0=Lovers
TTITLE1=Bird Of Hope
TTITLE2=Freedom
TTITLE3=Prelude
TTITLE4=Gardener
TTITLE5=Fairy Or Angel
TTITLE6=Blue Sky
TTITLE7=Spring
TTITLE8=The Peace Dove
TTITLE9=Map
EXTD=YEAR: 1998
EXTT0=
EXTT1=
EXTT2=
EXTT3=
EXTT4=
EXTT5=
EXTT6=
EXTT7=
EXTT8=
EXTT9=
PLAYORDER=
